<mxfile host="app.diagrams.net" agent="Mozilla/5.0 (Windows NT 10.0; Win64; x64; rv:137.0) Gecko/20100101 Firefox/137.0" version="26.2.9">
  <diagram name="Page-1" id="nJyo6OV2TYeDhV0pLNsA">
    <mxGraphModel dx="1589" dy="849" grid="1" gridSize="10" guides="1" tooltips="1" connect="1" arrows="1" fold="1" page="1" pageScale="1" pageWidth="850" pageHeight="1100" math="0" shadow="0">
      <root>
        <mxCell id="0" />
        <mxCell id="1" parent="0" />
        <mxCell id="Sm-z-VBrJLyujy-IbQeb-9" style="rounded=0;orthogonalLoop=1;jettySize=auto;html=1;entryX=0.5;entryY=1;entryDx=0;entryDy=0;endArrow=none;startFill=0;" parent="1" source="Sm-z-VBrJLyujy-IbQeb-4" target="Sm-z-VBrJLyujy-IbQeb-5" edge="1">
          <mxGeometry relative="1" as="geometry" />
        </mxCell>
        <mxCell id="Sm-z-VBrJLyujy-IbQeb-10" style="rounded=0;orthogonalLoop=1;jettySize=auto;html=1;entryX=0.5;entryY=1;entryDx=0;entryDy=0;endArrow=none;startFill=0;" parent="1" source="Sm-z-VBrJLyujy-IbQeb-4" target="Sm-z-VBrJLyujy-IbQeb-6" edge="1">
          <mxGeometry relative="1" as="geometry" />
        </mxCell>
        <mxCell id="Sm-z-VBrJLyujy-IbQeb-11" style="rounded=0;orthogonalLoop=1;jettySize=auto;html=1;entryX=0;entryY=0.5;entryDx=0;entryDy=0;endArrow=none;startFill=0;" parent="1" source="Sm-z-VBrJLyujy-IbQeb-4" target="Sm-z-VBrJLyujy-IbQeb-7" edge="1">
          <mxGeometry relative="1" as="geometry" />
        </mxCell>
        <mxCell id="Sm-z-VBrJLyujy-IbQeb-12" style="rounded=0;orthogonalLoop=1;jettySize=auto;html=1;entryX=0;entryY=0.5;entryDx=0;entryDy=0;endArrow=none;startFill=0;" parent="1" source="Sm-z-VBrJLyujy-IbQeb-4" target="Sm-z-VBrJLyujy-IbQeb-8" edge="1">
          <mxGeometry relative="1" as="geometry" />
        </mxCell>
        <mxCell id="Sm-z-VBrJLyujy-IbQeb-39" style="rounded=0;orthogonalLoop=1;jettySize=auto;html=1;entryX=0;entryY=0.5;entryDx=0;entryDy=0;endArrow=none;startFill=0;" parent="1" source="Sm-z-VBrJLyujy-IbQeb-4" target="Sm-z-VBrJLyujy-IbQeb-38" edge="1">
          <mxGeometry relative="1" as="geometry" />
        </mxCell>
        <mxCell id="Bo3sy8C13-rCjIiW097o-3" style="edgeStyle=orthogonalEdgeStyle;rounded=0;orthogonalLoop=1;jettySize=auto;html=1;entryX=1;entryY=0.5;entryDx=0;entryDy=0;endArrow=none;startFill=0;" parent="1" source="Sm-z-VBrJLyujy-IbQeb-4" target="Bo3sy8C13-rCjIiW097o-1" edge="1">
          <mxGeometry relative="1" as="geometry" />
        </mxCell>
        <mxCell id="Y0BCYaynre1UbPUPzL7O-153" style="rounded=0;orthogonalLoop=1;jettySize=auto;html=1;entryX=0.5;entryY=0;entryDx=0;entryDy=0;endArrow=none;startFill=0;" parent="1" source="Sm-z-VBrJLyujy-IbQeb-4" target="Y0BCYaynre1UbPUPzL7O-152" edge="1">
          <mxGeometry relative="1" as="geometry" />
        </mxCell>
        <mxCell id="Sm-z-VBrJLyujy-IbQeb-4" value="mahasiswa" style="whiteSpace=wrap;html=1;align=center;fillColor=#dae8fc;strokeColor=#6c8ebf;" parent="1" vertex="1">
          <mxGeometry x="1060" y="355" width="100" height="40" as="geometry" />
        </mxCell>
        <mxCell id="Sm-z-VBrJLyujy-IbQeb-5" value="id_mahasiswa" style="ellipse;whiteSpace=wrap;html=1;align=center;fontStyle=4;fillColor=#cdeb8b;strokeColor=#36393d;" parent="1" vertex="1">
          <mxGeometry x="950" y="280" width="100" height="40" as="geometry" />
        </mxCell>
        <mxCell id="Sm-z-VBrJLyujy-IbQeb-6" value="nama" style="ellipse;whiteSpace=wrap;html=1;align=center;" parent="1" vertex="1">
          <mxGeometry x="1180" y="285" width="100" height="40" as="geometry" />
        </mxCell>
        <mxCell id="Sm-z-VBrJLyujy-IbQeb-7" value="jenis_kelamin" style="ellipse;whiteSpace=wrap;html=1;align=center;" parent="1" vertex="1">
          <mxGeometry x="1240" y="330" width="100" height="40" as="geometry" />
        </mxCell>
        <mxCell id="Sm-z-VBrJLyujy-IbQeb-8" value="tanggal_lahir" style="ellipse;whiteSpace=wrap;html=1;align=center;" parent="1" vertex="1">
          <mxGeometry x="1250" y="380" width="100" height="40" as="geometry" />
        </mxCell>
        <mxCell id="Sm-z-VBrJLyujy-IbQeb-18" style="rounded=0;orthogonalLoop=1;jettySize=auto;html=1;entryX=0.5;entryY=1;entryDx=0;entryDy=0;strokeColor=default;endArrow=none;startFill=0;" parent="1" source="Sm-z-VBrJLyujy-IbQeb-13" target="Sm-z-VBrJLyujy-IbQeb-14" edge="1">
          <mxGeometry relative="1" as="geometry" />
        </mxCell>
        <mxCell id="Sm-z-VBrJLyujy-IbQeb-19" style="rounded=0;orthogonalLoop=1;jettySize=auto;html=1;entryX=0.5;entryY=1;entryDx=0;entryDy=0;strokeColor=default;endArrow=none;startFill=0;" parent="1" source="Sm-z-VBrJLyujy-IbQeb-13" target="Sm-z-VBrJLyujy-IbQeb-15" edge="1">
          <mxGeometry relative="1" as="geometry" />
        </mxCell>
        <mxCell id="Sm-z-VBrJLyujy-IbQeb-20" style="rounded=0;orthogonalLoop=1;jettySize=auto;html=1;exitX=0;exitY=0.5;exitDx=0;exitDy=0;entryX=0.5;entryY=1;entryDx=0;entryDy=0;strokeColor=default;endArrow=none;startFill=0;" parent="1" source="Sm-z-VBrJLyujy-IbQeb-13" target="Sm-z-VBrJLyujy-IbQeb-16" edge="1">
          <mxGeometry relative="1" as="geometry" />
        </mxCell>
        <mxCell id="Sm-z-VBrJLyujy-IbQeb-21" style="rounded=0;orthogonalLoop=1;jettySize=auto;html=1;entryX=1;entryY=0.5;entryDx=0;entryDy=0;exitX=0;exitY=0.5;exitDx=0;exitDy=0;strokeColor=default;endArrow=none;startFill=0;" parent="1" source="Sm-z-VBrJLyujy-IbQeb-13" target="Sm-z-VBrJLyujy-IbQeb-17" edge="1">
          <mxGeometry relative="1" as="geometry" />
        </mxCell>
        <mxCell id="Sm-z-VBrJLyujy-IbQeb-66" style="rounded=0;orthogonalLoop=1;jettySize=auto;html=1;entryX=0.5;entryY=0;entryDx=0;entryDy=0;strokeColor=default;endArrow=none;startFill=0;" parent="1" source="Sm-z-VBrJLyujy-IbQeb-13" target="Cee742t0J07glLO9Nud4-1" edge="1">
          <mxGeometry relative="1" as="geometry">
            <mxPoint x="400" y="410" as="targetPoint" />
          </mxGeometry>
        </mxCell>
        <mxCell id="Bo3sy8C13-rCjIiW097o-2" style="edgeStyle=orthogonalEdgeStyle;rounded=0;orthogonalLoop=1;jettySize=auto;html=1;entryX=0;entryY=0.5;entryDx=0;entryDy=0;endArrow=none;startFill=0;" parent="1" source="Sm-z-VBrJLyujy-IbQeb-13" target="Bo3sy8C13-rCjIiW097o-1" edge="1">
          <mxGeometry relative="1" as="geometry" />
        </mxCell>
        <mxCell id="Sm-z-VBrJLyujy-IbQeb-13" value="dosen" style="whiteSpace=wrap;html=1;align=center;fillColor=#dae8fc;strokeColor=#6c8ebf;" parent="1" vertex="1">
          <mxGeometry x="520" y="355" width="100" height="40" as="geometry" />
        </mxCell>
        <mxCell id="Sm-z-VBrJLyujy-IbQeb-14" value="id_dosen" style="ellipse;whiteSpace=wrap;html=1;align=center;fontStyle=4;fillColor=#cdeb8b;strokeColor=#36393d;" parent="1" vertex="1">
          <mxGeometry x="660" y="295" width="100" height="40" as="geometry" />
        </mxCell>
        <mxCell id="Sm-z-VBrJLyujy-IbQeb-15" value="nama" style="ellipse;whiteSpace=wrap;html=1;align=center;" parent="1" vertex="1">
          <mxGeometry x="460" y="290" width="100" height="40" as="geometry" />
        </mxCell>
        <mxCell id="Sm-z-VBrJLyujy-IbQeb-16" value="jenis_kelamin" style="ellipse;whiteSpace=wrap;html=1;align=center;" parent="1" vertex="1">
          <mxGeometry x="370" y="330" width="100" height="40" as="geometry" />
        </mxCell>
        <mxCell id="Sm-z-VBrJLyujy-IbQeb-17" value="tanggal_lahir" style="ellipse;whiteSpace=wrap;html=1;align=center;" parent="1" vertex="1">
          <mxGeometry x="340" y="385" width="100" height="40" as="geometry" />
        </mxCell>
        <mxCell id="Sm-z-VBrJLyujy-IbQeb-26" style="rounded=0;orthogonalLoop=1;jettySize=auto;html=1;entryX=0.5;entryY=0;entryDx=0;entryDy=0;endArrow=none;startFill=0;" parent="1" source="Sm-z-VBrJLyujy-IbQeb-22" target="Sm-z-VBrJLyujy-IbQeb-24" edge="1">
          <mxGeometry relative="1" as="geometry" />
        </mxCell>
        <mxCell id="Sm-z-VBrJLyujy-IbQeb-27" style="rounded=0;orthogonalLoop=1;jettySize=auto;html=1;entryX=1;entryY=0.5;entryDx=0;entryDy=0;endArrow=none;startFill=0;" parent="1" source="Sm-z-VBrJLyujy-IbQeb-22" target="Sm-z-VBrJLyujy-IbQeb-25" edge="1">
          <mxGeometry relative="1" as="geometry" />
        </mxCell>
        <mxCell id="Sm-z-VBrJLyujy-IbQeb-29" style="rounded=0;orthogonalLoop=1;jettySize=auto;html=1;entryX=1;entryY=0.5;entryDx=0;entryDy=0;endArrow=none;startFill=0;" parent="1" source="Sm-z-VBrJLyujy-IbQeb-22" target="Sm-z-VBrJLyujy-IbQeb-23" edge="1">
          <mxGeometry relative="1" as="geometry" />
        </mxCell>
        <mxCell id="Y0BCYaynre1UbPUPzL7O-156" style="edgeStyle=orthogonalEdgeStyle;rounded=0;orthogonalLoop=1;jettySize=auto;html=1;entryX=0;entryY=0.5;entryDx=0;entryDy=0;endArrow=none;startFill=0;" parent="1" source="Sm-z-VBrJLyujy-IbQeb-22" target="Y0BCYaynre1UbPUPzL7O-155" edge="1">
          <mxGeometry relative="1" as="geometry" />
        </mxCell>
        <mxCell id="Y0BCYaynre1UbPUPzL7O-164" style="edgeStyle=orthogonalEdgeStyle;rounded=0;orthogonalLoop=1;jettySize=auto;html=1;entryX=0.5;entryY=0;entryDx=0;entryDy=0;endArrow=none;startFill=0;" parent="1" source="Sm-z-VBrJLyujy-IbQeb-22" target="Y0BCYaynre1UbPUPzL7O-163" edge="1">
          <mxGeometry relative="1" as="geometry" />
        </mxCell>
        <mxCell id="Sm-z-VBrJLyujy-IbQeb-22" value="mata_kuliah" style="whiteSpace=wrap;html=1;align=center;fillColor=#dae8fc;strokeColor=#6c8ebf;" parent="1" vertex="1">
          <mxGeometry x="520" y="635" width="100" height="40" as="geometry" />
        </mxCell>
        <mxCell id="Sm-z-VBrJLyujy-IbQeb-23" value="nama_matkul" style="ellipse;whiteSpace=wrap;html=1;align=center;" parent="1" vertex="1">
          <mxGeometry x="390" y="640" width="100" height="40" as="geometry" />
        </mxCell>
        <mxCell id="Sm-z-VBrJLyujy-IbQeb-24" value="kode_matkul" style="ellipse;whiteSpace=wrap;html=1;align=center;fontStyle=4;fillColor=#cdeb8b;strokeColor=#36393d;" parent="1" vertex="1">
          <mxGeometry x="440" y="690" width="100" height="40" as="geometry" />
        </mxCell>
        <mxCell id="Sm-z-VBrJLyujy-IbQeb-25" value="total_sks" style="ellipse;whiteSpace=wrap;html=1;align=center;" parent="1" vertex="1">
          <mxGeometry x="390" y="585" width="100" height="40" as="geometry" />
        </mxCell>
        <mxCell id="Sm-z-VBrJLyujy-IbQeb-34" style="rounded=0;orthogonalLoop=1;jettySize=auto;html=1;entryX=0;entryY=0.5;entryDx=0;entryDy=0;endArrow=none;startFill=0;" parent="1" source="Sm-z-VBrJLyujy-IbQeb-30" target="Sm-z-VBrJLyujy-IbQeb-33" edge="1">
          <mxGeometry relative="1" as="geometry" />
        </mxCell>
        <mxCell id="Sm-z-VBrJLyujy-IbQeb-35" style="rounded=0;orthogonalLoop=1;jettySize=auto;html=1;entryX=0.5;entryY=0;entryDx=0;entryDy=0;endArrow=none;startFill=0;" parent="1" source="Sm-z-VBrJLyujy-IbQeb-30" target="Sm-z-VBrJLyujy-IbQeb-31" edge="1">
          <mxGeometry relative="1" as="geometry" />
        </mxCell>
        <mxCell id="Sm-z-VBrJLyujy-IbQeb-36" style="rounded=0;orthogonalLoop=1;jettySize=auto;html=1;entryX=0.5;entryY=0;entryDx=0;entryDy=0;endArrow=none;startFill=0;" parent="1" source="Sm-z-VBrJLyujy-IbQeb-30" target="Sm-z-VBrJLyujy-IbQeb-32" edge="1">
          <mxGeometry relative="1" as="geometry" />
        </mxCell>
        <mxCell id="Sm-z-VBrJLyujy-IbQeb-30" value="ruangan" style="whiteSpace=wrap;html=1;align=center;fillColor=#dae8fc;strokeColor=#6c8ebf;" parent="1" vertex="1">
          <mxGeometry x="520" y="865" width="100" height="40" as="geometry" />
        </mxCell>
        <mxCell id="Sm-z-VBrJLyujy-IbQeb-31" value="kode_ruangan" style="ellipse;whiteSpace=wrap;html=1;align=center;fontStyle=4;fillColor=#cdeb8b;strokeColor=#36393d;" parent="1" vertex="1">
          <mxGeometry x="470" y="935" width="100" height="40" as="geometry" />
        </mxCell>
        <mxCell id="Sm-z-VBrJLyujy-IbQeb-32" value="nama_ruangan" style="ellipse;whiteSpace=wrap;html=1;align=center;" parent="1" vertex="1">
          <mxGeometry x="600" y="945" width="100" height="40" as="geometry" />
        </mxCell>
        <mxCell id="Sm-z-VBrJLyujy-IbQeb-33" value="kapasitas" style="ellipse;whiteSpace=wrap;html=1;align=center;" parent="1" vertex="1">
          <mxGeometry x="690" y="865" width="100" height="40" as="geometry" />
        </mxCell>
        <mxCell id="Sm-z-VBrJLyujy-IbQeb-38" value="umur" style="ellipse;whiteSpace=wrap;html=1;align=center;dashed=1;" parent="1" vertex="1">
          <mxGeometry x="1210" y="440" width="100" height="40" as="geometry" />
        </mxCell>
        <mxCell id="Sm-z-VBrJLyujy-IbQeb-48" value="mengampu" style="shape=rhombus;perimeter=rhombusPerimeter;whiteSpace=wrap;html=1;align=center;" parent="1" vertex="1">
          <mxGeometry x="510" y="495" width="120" height="60" as="geometry" />
        </mxCell>
        <mxCell id="Sm-z-VBrJLyujy-IbQeb-62" style="rounded=0;orthogonalLoop=1;jettySize=auto;html=1;entryX=0.5;entryY=1;entryDx=0;entryDy=0;endArrow=none;startFill=0;exitX=0.5;exitY=1;exitDx=0;exitDy=0;" parent="1" source="Sm-z-VBrJLyujy-IbQeb-53" target="Sm-z-VBrJLyujy-IbQeb-58" edge="1">
          <mxGeometry relative="1" as="geometry" />
        </mxCell>
        <mxCell id="Sm-z-VBrJLyujy-IbQeb-63" style="rounded=0;orthogonalLoop=1;jettySize=auto;html=1;entryX=0;entryY=0.5;entryDx=0;entryDy=0;endArrow=none;startFill=0;exitX=0.5;exitY=1;exitDx=0;exitDy=0;" parent="1" source="Sm-z-VBrJLyujy-IbQeb-53" target="Sm-z-VBrJLyujy-IbQeb-59" edge="1">
          <mxGeometry relative="1" as="geometry" />
        </mxCell>
        <mxCell id="Y0BCYaynre1UbPUPzL7O-147" style="rounded=0;orthogonalLoop=1;jettySize=auto;html=1;entryX=0.5;entryY=0;entryDx=0;entryDy=0;endArrow=none;startFill=0;" parent="1" source="Sm-z-VBrJLyujy-IbQeb-53" target="Y0BCYaynre1UbPUPzL7O-146" edge="1">
          <mxGeometry relative="1" as="geometry" />
        </mxCell>
        <mxCell id="E5L_E7eeKhxD4uDnrpEL-4" style="rounded=0;orthogonalLoop=1;jettySize=auto;html=1;endArrow=none;startFill=0;exitX=0.5;exitY=1;exitDx=0;exitDy=0;" edge="1" parent="1" source="Sm-z-VBrJLyujy-IbQeb-53" target="E5L_E7eeKhxD4uDnrpEL-2">
          <mxGeometry relative="1" as="geometry" />
        </mxCell>
        <mxCell id="Sm-z-VBrJLyujy-IbQeb-53" value="kontrak" style="whiteSpace=wrap;html=1;align=center;fillColor=#dae8fc;strokeColor=#6c8ebf;" parent="1" vertex="1">
          <mxGeometry x="1060" y="635" width="100" height="40" as="geometry" />
        </mxCell>
        <mxCell id="Sm-z-VBrJLyujy-IbQeb-58" value="id_kontrak" style="ellipse;whiteSpace=wrap;html=1;align=center;fontStyle=4;fillColor=#cdeb8b;strokeColor=#36393d;" parent="1" vertex="1">
          <mxGeometry x="930" y="675" width="100" height="40" as="geometry" />
        </mxCell>
        <mxCell id="Sm-z-VBrJLyujy-IbQeb-59" value="kode_matkul" style="ellipse;whiteSpace=wrap;html=1;align=center;fillColor=#e1d5e7;strokeColor=#9673a6;fontStyle=4" parent="1" vertex="1">
          <mxGeometry x="1220" y="610" width="100" height="40" as="geometry" />
        </mxCell>
        <mxCell id="Sm-z-VBrJLyujy-IbQeb-69" value="" style="fontSize=12;html=1;endArrow=none;rounded=0;entryX=0.5;entryY=0;entryDx=0;entryDy=0;exitX=0.5;exitY=1;exitDx=0;exitDy=0;startFill=0;" parent="1" source="Sm-z-VBrJLyujy-IbQeb-48" target="Sm-z-VBrJLyujy-IbQeb-22" edge="1">
          <mxGeometry width="100" height="100" relative="1" as="geometry">
            <mxPoint x="610" y="570" as="sourcePoint" />
            <mxPoint x="610" y="700" as="targetPoint" />
          </mxGeometry>
        </mxCell>
        <mxCell id="Sm-z-VBrJLyujy-IbQeb-70" value="" style="fontSize=12;html=1;endArrow=none;endFill=1;rounded=0;entryX=0.5;entryY=1;entryDx=0;entryDy=0;exitX=0.5;exitY=0;exitDx=0;exitDy=0;startFill=0;" parent="1" source="Sm-z-VBrJLyujy-IbQeb-48" target="Sm-z-VBrJLyujy-IbQeb-13" edge="1">
          <mxGeometry width="100" height="100" relative="1" as="geometry">
            <mxPoint x="570" y="465" as="sourcePoint" />
            <mxPoint x="470" y="560" as="targetPoint" />
          </mxGeometry>
        </mxCell>
        <mxCell id="Cee742t0J07glLO9Nud4-1" value="umur" style="ellipse;whiteSpace=wrap;html=1;align=center;dashed=1;" parent="1" vertex="1">
          <mxGeometry x="430" y="425" width="100" height="40" as="geometry" />
        </mxCell>
        <mxCell id="Cee742t0J07glLO9Nud4-17" value="PRIMARY_KEY" style="ellipse;whiteSpace=wrap;html=1;align=center;fontStyle=4;fillColor=#cdeb8b;strokeColor=#36393d;" parent="1" vertex="1">
          <mxGeometry x="1000" y="920" width="100" height="40" as="geometry" />
        </mxCell>
        <mxCell id="Cee742t0J07glLO9Nud4-19" value="FOREIGN_KEY" style="ellipse;whiteSpace=wrap;html=1;align=center;fillColor=#e1d5e7;strokeColor=#9673a6;fontStyle=4" parent="1" vertex="1">
          <mxGeometry x="1110" y="920" width="100" height="40" as="geometry" />
        </mxCell>
        <mxCell id="Cee742t0J07glLO9Nud4-20" value="ATRIBUTE" style="ellipse;whiteSpace=wrap;html=1;align=center;" parent="1" vertex="1">
          <mxGeometry x="1220" y="920" width="100" height="40" as="geometry" />
        </mxCell>
        <mxCell id="Bo3sy8C13-rCjIiW097o-1" value="mengajar" style="shape=rhombus;perimeter=rhombusPerimeter;whiteSpace=wrap;html=1;align=center;" parent="1" vertex="1">
          <mxGeometry x="790" y="345" width="120" height="60" as="geometry" />
        </mxCell>
        <mxCell id="Y0BCYaynre1UbPUPzL7O-146" value="id_mahasiswa" style="ellipse;whiteSpace=wrap;html=1;align=center;fillColor=#e1d5e7;strokeColor=#9673a6;fontStyle=4" parent="1" vertex="1">
          <mxGeometry x="1210" y="675" width="100" height="40" as="geometry" />
        </mxCell>
        <mxCell id="Y0BCYaynre1UbPUPzL7O-149" style="rounded=0;orthogonalLoop=1;jettySize=auto;html=1;entryX=0.5;entryY=0;entryDx=0;entryDy=0;endArrow=none;startFill=0;" parent="1" source="Y0BCYaynre1UbPUPzL7O-148" target="Sm-z-VBrJLyujy-IbQeb-4" edge="1">
          <mxGeometry relative="1" as="geometry" />
        </mxCell>
        <mxCell id="Y0BCYaynre1UbPUPzL7O-148" value="NIM" style="ellipse;whiteSpace=wrap;html=1;align=center;fontStyle=4;" parent="1" vertex="1">
          <mxGeometry x="1060" y="280" width="100" height="40" as="geometry" />
        </mxCell>
        <mxCell id="Y0BCYaynre1UbPUPzL7O-151" style="rounded=0;orthogonalLoop=1;jettySize=auto;html=1;entryX=0.5;entryY=0;entryDx=0;entryDy=0;endArrow=none;startFill=0;" parent="1" source="Y0BCYaynre1UbPUPzL7O-150" target="Sm-z-VBrJLyujy-IbQeb-13" edge="1">
          <mxGeometry relative="1" as="geometry" />
        </mxCell>
        <mxCell id="Y0BCYaynre1UbPUPzL7O-150" value="NIDS" style="ellipse;whiteSpace=wrap;html=1;align=center;fontStyle=4;" parent="1" vertex="1">
          <mxGeometry x="560" y="285" width="100" height="40" as="geometry" />
        </mxCell>
        <mxCell id="Y0BCYaynre1UbPUPzL7O-154" style="rounded=0;orthogonalLoop=1;jettySize=auto;html=1;entryX=0.5;entryY=0;entryDx=0;entryDy=0;endArrow=none;startFill=0;" parent="1" source="Y0BCYaynre1UbPUPzL7O-152" target="Sm-z-VBrJLyujy-IbQeb-53" edge="1">
          <mxGeometry relative="1" as="geometry" />
        </mxCell>
        <mxCell id="Y0BCYaynre1UbPUPzL7O-152" value="melakukan" style="shape=rhombus;perimeter=rhombusPerimeter;whiteSpace=wrap;html=1;align=center;" parent="1" vertex="1">
          <mxGeometry x="1050" y="495" width="120" height="60" as="geometry" />
        </mxCell>
        <mxCell id="Y0BCYaynre1UbPUPzL7O-157" style="edgeStyle=orthogonalEdgeStyle;rounded=0;orthogonalLoop=1;jettySize=auto;html=1;entryX=0;entryY=0.5;entryDx=0;entryDy=0;endArrow=none;startFill=0;" parent="1" source="Y0BCYaynre1UbPUPzL7O-155" target="Sm-z-VBrJLyujy-IbQeb-53" edge="1">
          <mxGeometry relative="1" as="geometry" />
        </mxCell>
        <mxCell id="Y0BCYaynre1UbPUPzL7O-155" value="memilih" style="shape=rhombus;perimeter=rhombusPerimeter;whiteSpace=wrap;html=1;align=center;" parent="1" vertex="1">
          <mxGeometry x="790" y="625" width="120" height="60" as="geometry" />
        </mxCell>
        <mxCell id="Y0BCYaynre1UbPUPzL7O-165" style="edgeStyle=orthogonalEdgeStyle;rounded=0;orthogonalLoop=1;jettySize=auto;html=1;entryX=0.5;entryY=0;entryDx=0;entryDy=0;endArrow=none;startFill=0;" parent="1" source="Y0BCYaynre1UbPUPzL7O-163" target="Sm-z-VBrJLyujy-IbQeb-30" edge="1">
          <mxGeometry relative="1" as="geometry" />
        </mxCell>
        <mxCell id="Y0BCYaynre1UbPUPzL7O-163" value="menggunakan" style="shape=rhombus;perimeter=rhombusPerimeter;whiteSpace=wrap;html=1;align=center;" parent="1" vertex="1">
          <mxGeometry x="510" y="750" width="120" height="60" as="geometry" />
        </mxCell>
        <mxCell id="Y0BCYaynre1UbPUPzL7O-166" value="1" style="text;html=1;align=center;verticalAlign=middle;whiteSpace=wrap;rounded=0;" parent="1" vertex="1">
          <mxGeometry x="750" y="375" width="60" height="30" as="geometry" />
        </mxCell>
        <mxCell id="Y0BCYaynre1UbPUPzL7O-167" value="N" style="text;html=1;align=center;verticalAlign=middle;whiteSpace=wrap;rounded=0;" parent="1" vertex="1">
          <mxGeometry x="890" y="375" width="60" height="30" as="geometry" />
        </mxCell>
        <mxCell id="Y0BCYaynre1UbPUPzL7O-168" value="1" style="text;html=1;align=center;verticalAlign=middle;whiteSpace=wrap;rounded=0;" parent="1" vertex="1">
          <mxGeometry x="1060" y="465" width="60" height="30" as="geometry" />
        </mxCell>
        <mxCell id="Y0BCYaynre1UbPUPzL7O-169" value="N" style="text;html=1;align=center;verticalAlign=middle;whiteSpace=wrap;rounded=0;" parent="1" vertex="1">
          <mxGeometry x="1060" y="550" width="60" height="30" as="geometry" />
        </mxCell>
        <mxCell id="Y0BCYaynre1UbPUPzL7O-170" value="1" style="text;html=1;align=center;verticalAlign=middle;whiteSpace=wrap;rounded=0;" parent="1" vertex="1">
          <mxGeometry x="560" y="810" width="60" height="30" as="geometry" />
        </mxCell>
        <mxCell id="Y0BCYaynre1UbPUPzL7O-171" value="N" style="text;html=1;align=center;verticalAlign=middle;whiteSpace=wrap;rounded=0;" parent="1" vertex="1">
          <mxGeometry x="560" y="720" width="60" height="30" as="geometry" />
        </mxCell>
        <mxCell id="Y0BCYaynre1UbPUPzL7O-172" value="N" style="text;html=1;align=center;verticalAlign=middle;whiteSpace=wrap;rounded=0;" parent="1" vertex="1">
          <mxGeometry x="560" y="555" width="60" height="30" as="geometry" />
        </mxCell>
        <mxCell id="Y0BCYaynre1UbPUPzL7O-173" value="1" style="text;html=1;align=center;verticalAlign=middle;whiteSpace=wrap;rounded=0;" parent="1" vertex="1">
          <mxGeometry x="560" y="470" width="60" height="30" as="geometry" />
        </mxCell>
        <mxCell id="Y0BCYaynre1UbPUPzL7O-174" value="N" style="text;html=1;align=center;verticalAlign=middle;whiteSpace=wrap;rounded=0;" parent="1" vertex="1">
          <mxGeometry x="740" y="625" width="60" height="30" as="geometry" />
        </mxCell>
        <mxCell id="Y0BCYaynre1UbPUPzL7O-175" value="N" style="text;html=1;align=center;verticalAlign=middle;whiteSpace=wrap;rounded=0;" parent="1" vertex="1">
          <mxGeometry x="900" y="625" width="60" height="30" as="geometry" />
        </mxCell>
        <mxCell id="E5L_E7eeKhxD4uDnrpEL-1" value="kode_ruangan" style="ellipse;whiteSpace=wrap;html=1;align=center;fillColor=#e1d5e7;strokeColor=#9673a6;fontStyle=4" vertex="1" parent="1">
          <mxGeometry x="1020" y="730" width="100" height="40" as="geometry" />
        </mxCell>
        <mxCell id="E5L_E7eeKhxD4uDnrpEL-2" value="id_dosen" style="ellipse;whiteSpace=wrap;html=1;align=center;fillColor=#e1d5e7;strokeColor=#9673a6;fontStyle=4" vertex="1" parent="1">
          <mxGeometry x="1130" y="720" width="100" height="40" as="geometry" />
        </mxCell>
        <mxCell id="E5L_E7eeKhxD4uDnrpEL-3" style="rounded=0;orthogonalLoop=1;jettySize=auto;html=1;entryX=0.546;entryY=0.019;entryDx=0;entryDy=0;entryPerimeter=0;endArrow=none;startFill=0;exitX=0.5;exitY=1;exitDx=0;exitDy=0;" edge="1" parent="1" source="Sm-z-VBrJLyujy-IbQeb-53" target="E5L_E7eeKhxD4uDnrpEL-1">
          <mxGeometry relative="1" as="geometry" />
        </mxCell>
      </root>
    </mxGraphModel>
  </diagram>
</mxfile>
